<?xml version="1.0" encoding="utf-8"?>
<!-- Generator: Adobe Illustrator 16.0.2, SVG Export Plug-In . SVG Version: 6.00 Build 0)  -->
<!DOCTYPE svg PUBLIC "-//W3C//DTD SVG 1.1//EN" "http://www.w3.org/Graphics/SVG/1.1/DTD/svg11.dtd">
<svg version="1.1" xmlns="http://www.w3.org/2000/svg" xmlns:xlink="http://www.w3.org/1999/xlink" x="0px" y="0px"
	 width="136.918px" height="136.913px" viewBox="0 0 136.918 136.913" enable-background="new 0 0 136.918 136.913"
	 xml:space="preserve">
<g id="Layer_1">
	<g>
		<g>
			<circle fill="#FFFFFF" stroke="#CFCED7" stroke-width="0.25" stroke-miterlimit="10" cx="68.456" cy="68.458" r="63.333"/>
		</g>
		<g>
			<path fill="#24377C" d="M128.17,47.341H89.148c1.693,13.529,1.705,28.436,0.031,41.982h39.074
				c2.279-6.535,3.535-13.553,3.535-20.865C131.789,61.05,130.506,53.946,128.17,47.341z"/>
			<path fill="#FCFCFC" d="M89.148,47.341h39.021c-0.008-0.02-0.014-0.037-0.02-0.055c-8.107-22.855-28.955-39.67-54.006-41.902
				C83.838,10.698,86.668,27.534,89.148,47.341z"/>
			<path fill="#D32027" d="M74.145,131.528c25.096-2.236,45.975-19.109,54.049-42.025c0.02-0.061,0.039-0.121,0.061-0.18H89.18
				C86.721,109.237,83.879,126.192,74.145,131.528z"/>
			<path fill="#2B4194" d="M5.123,68.458c0,7.313,1.254,14.33,3.535,20.865h83.783c1.672-13.547,1.662-28.453-0.033-41.982H8.742
				C6.406,53.946,5.123,61.05,5.123,68.458z"/>
			<path fill="#FFFFFF" d="M8.762,47.286c-0.008,0.018-0.014,0.035-0.02,0.055h83.666c-2.479-19.807-8.57-36.643-18.264-41.957
				c-1.875-0.166-3.771-0.26-5.689-0.26C40.904,5.124,17.473,22.72,8.762,47.286z"/>
			<path fill="#DB2727" d="M92.441,89.323H8.658c0.021,0.059,0.039,0.119,0.061,0.18c8.678,24.629,32.139,42.287,59.736,42.287
				c1.918,0,3.814-0.094,5.689-0.262C83.879,126.192,89.982,109.237,92.441,89.323z"/>
		</g>
	</g>
</g>
<g id="Copyrights" display="none">
</g>
</svg>
